<?xml version="1.0" encoding="UTF-8"?>
<svg xmlns="http://www.w3.org/2000/svg" id="Capa_15" data-name="Capa 15" viewBox="0 0 24 24">
  <path d="m10.632,12.64c0,.956-.685,1.734-1.546,1.734-.848,0-1.546-.778-1.546-1.734s.685-1.734,1.546-1.734c.868,0,1.56.785,1.546,1.734h0Zm0,0"/>
  <path d="m16.348,12.64c0,.956-.678,1.734-1.546,1.734-.848,0-1.546-.778-1.546-1.734s.685-1.734,1.546-1.734c.868,0,1.56.785,1.546,1.734h0Zm0,0"/>
  <path d="m0,0v24h24V0H0Zm20.467,16.329c0,.016-.01.03-.022.04-1.484,1.09-2.922,1.748-4.34,2.183-.334-.461-.637-.949-.901-1.461-.015-.029-.002-.065.029-.076.469-.177.915-.389,1.343-.639.034-.02.036-.068.005-.092-.091-.067-.181-.139-.267-.21-.016-.013-.038-.016-.056-.006-2.783,1.285-5.831,1.285-8.646,0-.019-.008-.04-.006-.056.007-.086.071-.176.141-.266.209-.031.023-.028.072.005.092.429.246.874.462,1.342.639.031.012.045.047.03.076-.259.513-.562,1-.902,1.461-1.418-.437-2.862-1.099-4.353-2.198-.306-3.222.305-6.485,2.548-9.83,1.101-.508,2.282-.881,3.517-1.093.023-.003.045.007.056.026.152.269.325.614.443.896,1.295-.198,2.61-.198,3.933,0,.117-.276.285-.626.436-.896.011-.02.033-.03.056-.026,1.234.213,2.414.586,3.514,1.092,1.95,2.861,2.913,6.09,2.554,9.807h0Zm0,0"/>
</svg>
