<?xml version="1.0" encoding="UTF-8"?>
<svg xmlns="http://www.w3.org/2000/svg" id="Capa_23" data-name="Capa 23" viewBox="0 0 24 24">
  <defs>
    <style>
      .cls-1 {
        fill-rule: evenodd;
      }
    </style>
  </defs>
  <path d="m24,0H0v24h24V0Zm-12.006,19.556c-.815,0-1.597-.108-2.331-.31-.143-.039-.294-.028-.43.031l-1.598.706c-.418.185-.89-.113-.904-.569l-.044-1.433c-.006-.177-.085-.341-.216-.459-1.567-1.401-2.529-3.43-2.529-5.778,0-4.489,3.517-7.811,8.053-7.811s8.053,3.323,8.053,7.811-3.517,7.812-8.053,7.812h0Zm0,0"/>
  <path class="cls-1" d="m16.83,9.943l-2.366,3.753c-.376.597-1.182.746-1.747.322l-1.881-1.411c-.173-.129-.41-.129-.582.002l-2.541,1.928c-.339.257-.782-.148-.555-.509l2.366-3.753c.376-.597,1.182-.745,1.747-.322l1.881,1.411c.172.129.41.129.582-.002l2.541-1.928c.339-.257.782.149.555.509h0Zm0,0"/>
</svg>
