<?xml version="1.0" encoding="UTF-8"?>
<svg xmlns="http://www.w3.org/2000/svg" id="Capa_12" data-name="Capa 12" viewBox="0 0 24 24">
  <path d="m14.177,9.221h-.551c-.082,0-.148.066-.148.148v2.015s-1.552-2.095-1.552-2.096c-.017-.022-.037-.042-.062-.053-.02-.009-.042-.014-.064-.014h-.548c-.082,0-.148.066-.148.148v3.392c0,.082.067.148.148.148h.551c.083,0,.149-.066.149-.148v-2.014l1.554,2.099c.013.018.03.033.05.044.022.013.049.02.075.02h.548c.082,0,.148-.066.148-.148v-3.392c0-.082-.066-.148-.148-.148Z"/>
  <rect x="9.724" y="9.221" width=".848" height="3.689" rx=".148" ry=".148"/>
  <path d="m9.109,12.063h-1.484v-2.693c0-.082-.067-.148-.148-.148h-.551c-.082,0-.148.066-.148.148v3.392c0,.082.066.148.148.148h2.184c.082,0,.148-.066.148-.148v-.551c0-.082-.067-.148-.148-.148Z"/>
  <path d="m12,0C5.373,0,0,5.373,0,12s5.373,12,12,12,12-5.373,12-12S18.627,0,12,0Zm6.107,14.782c-1.631,1.877-5.278,4.164-6.107,4.513-.83.35-.708-.223-.674-.419.02-.117.112-.666.112-.666.026-.199.053-.506-.025-.702-.087-.217-.432-.329-.685-.383-3.736-.494-6.501-3.106-6.501-6.223,0-3.478,3.487-6.308,7.773-6.308s7.773,2.83,7.773,6.308c0,1.392-.539,2.645-1.666,3.88h0Z"/>
  <path d="m17.187,9.221h-2.183c-.082,0-.149.066-.149.148v3.392c0,.082.067.148.149.148h2.183c.083,0,.149-.066.149-.148v-.551c0-.082-.067-.148-.149-.148h-1.484v-.573h1.484c.083,0,.149-.066.149-.148v-.551c0-.082-.067-.149-.149-.149h-1.484v-.573h1.484c.083,0,.149-.066.149-.148v-.551c0-.082-.067-.148-.149-.148Z"/>
</svg>
