<?xml version="1.0" encoding="UTF-8"?>
<svg xmlns="http://www.w3.org/2000/svg" id="Capa_1" data-name="Capa 1" viewBox="0 0 24 24">
  <path d="m8.388,8.225c-1.632,0-3.001,2.808-3.001,5.554,0,1.283.487,2.003,1.307,2.003.797,0,1.292-.503,2.723-2.746,0,0,.651-1.033,1.725-2.681-1.131-1.62-1.87-2.13-2.754-2.13h0Zm0,0"/>
  <path d="m15.558,7.839c-.875,0-1.611.686-2.502,2.062.248.367.504.767.772,1.203l.99,1.65c1.548,2.49,1.937,3.028,2.752,3.028.85,0,1.261-.727,1.261-1.98,0-3.287-1.454-5.964-3.272-5.964h0Zm0,0"/>
  <path d="m12,0C5.373,0,0,5.373,0,12s5.373,12,12,12,12-5.373,12-12S18.627,0,12,0h0Zm5.53,17.608c-1.628,0-2.526-.914-4.138-3.612l-.828-1.392c-.197-.331-.383-.639-.561-.925-.506.895-1.242,2.194-1.242,2.194-1.765,3.085-2.758,3.736-4.138,3.736-1.918,0-3.063-1.493-3.063-3.86,0-3.782,2.104-7.356,4.85-7.356,1.347,0,2.472.653,3.818,2.366.979-1.324,2.061-2.366,3.445-2.366,2.613,0,4.765,3.326,4.765,7.286,0,2.416-1.04,3.93-2.908,3.93h0Zm0,0"/>
</svg>
