<?xml version="1.0" encoding="UTF-8"?>
<svg xmlns="http://www.w3.org/2000/svg" id="Capa_2" data-name="Capa 2" viewBox="0 0 24 24">
  <path d="m8.392,8.23c-1.63,0-2.998,2.805-2.998,5.547,0,1.282.487,2.001,1.306,2.001.796,0,1.29-.502,2.72-2.743,0,0,.65-1.032,1.723-2.678-1.13-1.618-1.868-2.128-2.751-2.128h0Zm0,0"/>
  <path d="m15.554,7.844c-.874,0-1.609.685-2.5,2.06.248.366.504.766.771,1.201l.988,1.648c1.546,2.487,1.935,3.025,2.749,3.025.849,0,1.26-.726,1.26-1.978,0-3.283-1.453-5.957-3.268-5.957h0Zm0,0"/>
  <path d="m24,0H0v24h24V0Zm-6.476,17.601c-1.626,0-2.523-.913-4.133-3.608l-.827-1.391c-.196-.331-.382-.639-.56-.925-.505.894-1.24,2.192-1.24,2.192-1.763,3.082-2.755,3.732-4.133,3.732-1.915,0-3.059-1.491-3.059-3.855,0-3.778,2.102-7.347,4.844-7.347,1.345,0,2.469.652,3.814,2.364.978-1.323,2.059-2.364,3.441-2.364,2.61,0,4.759,3.322,4.759,7.278,0,2.413-1.039,3.925-2.905,3.925h0Zm0,0"/>
</svg>
