<?xml version="1.0" encoding="UTF-8"?>
<svg xmlns="http://www.w3.org/2000/svg" id="Capa_11" data-name="Capa 11" viewBox="0 0 24 24">
  <path d="m13.333,11.145l-1.65-.366c-.628-.143-1.35-.332-1.35-.924s.507-1.007,1.422-1.007c1.844,0,1.676,1.267,2.591,1.267.482,0,.903-.283.903-.77,0-1.137-1.819-1.989-3.362-1.989-1.675,0-3.459.711-3.459,2.606,0,.912.326,1.883,2.121,2.333l2.229.557c.675.166.844.546.844.888,0,.57-.566,1.126-1.59,1.126-2.002,0-1.724-1.54-2.796-1.54-.482,0-.832.332-.832.806,0,.924,1.121,2.156,3.628,2.156,2.385,0,3.567-1.149,3.567-2.689,0-.994-.458-2.05-2.266-2.452h0Zm0,0"/>
  <path d="m24,0H0v24h24V0Zm-5.752,18.23c-.789.789-1.837,1.223-2.953,1.223-.722,0-1.43-.188-2.055-.541-.406.072-.821.11-1.236.11-.952,0-1.877-.187-2.746-.555-.841-.355-1.595-.864-2.243-1.512-.648-.648-1.156-1.402-1.511-2.243-.368-.87-.555-1.794-.555-2.747,0-.408.037-.816.106-1.216-.343-.617-.526-1.315-.526-2.025,0-1.116.435-2.165,1.223-2.953.789-.789,1.838-1.224,2.954-1.224.683,0,1.359.171,1.959.49.001,0,.002,0,.003,0,.438-.084.887-.126,1.336-.126.952,0,1.877.187,2.746.554.84.355,1.595.864,2.243,1.512.648.648,1.157,1.403,1.512,2.243.368.87.555,1.794.555,2.746,0,.429-.041.859-.118,1.279.345.619.529,1.32.529,2.032,0,1.116-.434,2.165-1.224,2.953h0Zm0,0"/>
</svg>
