<?xml version="1.0" encoding="UTF-8"?>
<svg xmlns="http://www.w3.org/2000/svg" id="Capa_26" data-name="Capa 26" viewBox="0 0 24 24">
  <path d="m12,0C5.373,0,0,5.373,0,12s5.373,12,12,12,12-5.373,12-12S18.627,0,12,0Zm7.244,16.194c-.034.053-.104.113-.223.179-.704.388-1.171.347-1.536.581-.174.112-.193.329-.222.515-.017.111-.044.209-.129.269-.276.19-1.092-.014-2.146.334-.869.287-1.423,1.114-2.987,1.114s-2.105-.825-2.989-1.116c-1.052-.348-1.869-.144-2.145-.335-.225-.154-.042-.584-.351-.783-.364-.234-.832-.193-1.536-.579-.237-.131-.278-.236-.24-.317.036-.079.123-.125.198-.161.466-.228.911-.497,1.315-.823.433-.349.811-.752,1.116-1.218.172-.263.316-.543.427-.836.08-.218.109-.364.114-.399.022-.171.046-.306-.142-.48-.182-.168-.99-.669-1.214-.825-.361-.252-.526-.504-.423-.81.074-.223.29-.336.516-.334.068,0,.136.008.202.023.407.088.803.293,1.031.347.028.007.056.011.084.011.119.002.162-.089.155-.196-.026-.445-.089-1.314-.019-2.126.031-.356.095-.711.211-1.05.166-.478.407-.809.675-1.114.205-.234,1.164-1.254,3.015-1.254,1.387,0,2.273.572,2.717.959.104.091.207.189.299.294.267.306.508.636.674,1.114.118.337.18.693.21,1.048.07.812.01,1.68-.019,2.126-.003.036-.002.073.006.109,0,0,0,.001,0,.002.019.063.066.088.149.088.028,0,.057-.004.084-.011.229-.055.624-.259,1.032-.347.066-.015.135-.023.202-.023.19,0,.371.065.469.23.014.022.025.047.036.074,0,0,0,.002.001.003.12.318-.043.577-.414.836-.224.157-1.032.657-1.214.825-.189.174-.164.309-.142.48.088.684.529,1.3.974,1.804.553.626,1.25,1.113,1.999,1.475.047.023.121.061.167.114.047.053.056.126.013.185Z"/>
</svg>
