<?xml version="1.0" encoding="UTF-8"?>
<svg xmlns="http://www.w3.org/2000/svg" id="Capa_27" data-name="Capa 27" viewBox="0 0 24 24">
  <path d="m0,0v24h24V0H0Zm19.221,16.158c-.034.053-.104.113-.223.179-.703.389-1.17.347-1.534.581-.175.112-.193.328-.222.514-.017.11-.043.209-.129.268-.276.191-1.091-.014-2.144.334-.868.287-1.422,1.112-2.983,1.112s-2.103-.824-2.985-1.115c-1.051-.347-1.867-.143-2.143-.334-.224-.155-.042-.584-.351-.783-.364-.234-.831-.192-1.534-.579-.237-.131-.277-.235-.241-.315.03-.074.127-.127.198-.162,1.033-.499,1.714-1.109,2.159-1.667.001,0,.002-.002.002-.003.18-.225.34-.467.476-.721.143-.268.291-.577.332-.882.021-.171.046-.306-.142-.48-.182-.168-.989-.668-1.213-.824-.352-.246-.517-.492-.429-.789.071-.237.281-.354.522-.354.437,0,.819.269,1.232.37.028.007.056.011.084.011.121.002.162-.087.154-.196-.026-.445-.089-1.312-.019-2.123.026-.307.076-.625.168-.92.166-.548.425-.909.716-1.242.205-.234,1.162-1.252,3.011-1.252,1.099,0,2.275.409,3.012,1.252.396.452.682.995.802,1.585.036.174.063.364.081.574.07.811.01,1.678-.019,2.123-.002.032-.002.058,0,.082.012.085.074.117.155.117.029,0,.057-.004.084-.011.229-.055.624-.259,1.03-.347.067-.015.135-.022.202-.022.225,0,.406.105.506.305.12.318-.043.576-.414.835-.224.157-1.031.656-1.213.824-.189.174-.164.309-.142.48.056.433.304.868.537,1.229.195.303.428.581.685.835.425.42.992.845,1.748,1.211.052.025.134.07.178.129.037.05.038.119.001.169Z"/>
</svg>
