<?xml version="1.0" encoding="UTF-8"?>
<svg xmlns="http://www.w3.org/2000/svg" id="Capa_30" data-name="Capa 30" viewBox="0 0 24 24">
  <defs>
    <style>
      .cls-1 {
        fill: #fff;
      }
    </style>
  </defs>
  <path d="m24,24H0S0,0,0,0h24v24Z"/>
  <path class="cls-1" d="m11.986,2.809C6.918,2.809,2.809,6.918,2.809,11.986s4.109,9.177,9.177,9.177,9.177-4.108,9.177-9.177S17.054,2.809,11.986,2.809Zm4.209,13.236c-.165.27-.517.355-.786.19-2.155-1.317-4.867-1.615-8.062-.885-.308.071-.615-.122-.685-.43-.071-.308.122-.615.43-.685,3.496-.799,6.494-.455,8.913,1.023.27.165.355.517.19.787Zm1.123-2.499c-.208.337-.648.442-.984.236-2.466-1.516-6.227-1.955-9.144-1.069-.378.114-.778-.099-.893-.477-.114-.378.099-.777.477-.892,3.333-1.011,7.476-.522,10.309,1.219.336.207.442.648.235.984Zm.097-2.602c-2.958-1.757-7.837-1.918-10.661-1.061-.454.138-.933-.118-1.07-.572-.137-.454.118-.933.572-1.071,3.242-.984,8.63-.794,12.036,1.228.408.242.542.769.3,1.176-.242.408-.769.542-1.176.3Z"/>
</svg>
